# xmcd
#
# Track frame offsets: 
#        150
#        69928
#        116509
#
# Disc length: 2587 seconds
#
# Revision: 0
# Processed by: cddbd v1.5.2PL0 Copyright (c) Steve Scherf et al.
# Submitted via: ExactAudioCopy v0.95b4
#
DISCID=1e0a1903
DTITLE=Spancer - Slowly We Rock
DYEAR=1900
DGENRE=Doom
TTITLE0=The Art Of True Mastership
TTITLE1=Throne Of Wisdom
TTITLE2=Soulcadger
EXTD=
EXTT0=
EXTT1=
EXTT2=
PLAYORDER=
